HIERARCHY
ROOT Hips
{
    OFFSET 0.000000 0.000000 0.000000
    CHANNELS 6 Xposition Yposition Zposition Zrotation Xrotation Yrotation
    JOINT Spine
    {
        OFFSET -0.000000 8.267054 0.000000
        CHANNELS 3 Zrotation Xrotation Yrotation
        JOINT Spine1
        {
            OFFSET -0.000000 23.684998 0.000000
            CHANNELS 3 Zrotation Xrotation Yrotation
            JOINT Neck
            {
                OFFSET -0.000000 23.587730 2.144339
                CHANNELS 3 Zrotation Xrotation Yrotation
                JOINT Head
                {
                    OFFSET -0.000000 14.114483 -2.016355
                    CHANNELS 3 Zrotation Xrotation Yrotation
                    End Site
                    {
                        OFFSET -0.000000 25.204432 0.000000
                    }
                }
            }
            JOINT LeftShoulder
            {
                OFFSET 4.070090 22.062094 -0.247321
                CHANNELS 3 Zrotation Xrotation Yrotation
                JOINT LeftArm
                {
                    OFFSET 10.395479 0.000000 0.000000
                    CHANNELS 3 Zrotation Xrotation Yrotation
                    JOINT LeftForeArm
                    {
                        OFFSET 37.713577 0.000000 0.000000
                        CHANNELS 3 Zrotation Xrotation Yrotation
                        JOINT LeftHand
                        {
                            OFFSET 20.284107 0.000000 0.000000
                            CHANNELS 3 Zrotation Xrotation Yrotation
                            End Site
                            {
                                OFFSET 15.122660 0.000000 0.000000
                            }
                        }
                    }
                }
            }
            JOINT RightShoulder
            {
                OFFSET -3.979272 22.062094 -0.247321
                CHANNELS 3 Zrotation Xrotation Yrotation
                JOINT RightArm
                {
                    OFFSET -10.395479 0.000000 0.000000
                    CHANNELS 3 Zrotation Xrotation Yrotation
                    JOINT RightForeArm
                    {
                        OFFSET -37.713577 0.000000 0.000000
                        CHANNELS 3 Zrotation Xrotation Yrotation
                        JOINT RightHand
                        {
                            OFFSET -20.284107 0.000000 0.000000
                            CHANNELS 3 Zrotation Xrotation Yrotation
                            End Site
                            {
                                OFFSET -15.122660 0.000000 0.000000
                            }
                        }
                    }
                }
            }
        }
    }
    JOINT LeftUpLeg
    {
        OFFSET 10.081773 0.000000 0.000000
        CHANNELS 3 Zrotation Xrotation Yrotation
        JOINT LeftLeg
        {
            OFFSET -0.000000 -36.382099 0.000000
            CHANNELS 3 Zrotation Xrotation Yrotation
            JOINT LeftFoot
            {
                OFFSET -0.000000 -49.182560 0.000000
                CHANNELS 3 Zrotation Xrotation Yrotation
                JOINT LeftToeBase
                {
                    OFFSET -0.000000 -6.553152 15.122660
                    CHANNELS 3 Zrotation Xrotation Yrotation
                    End Site
                    {
                        OFFSET -0.000000 0.000000 4.032709
                    }
                }
            }
        }
    }
    JOINT RightUpLeg
    {
        OFFSET -10.081773 0.000000 0.000000
        CHANNELS 3 Zrotation Xrotation Yrotation
        JOINT RightLeg
        {
            OFFSET -0.000000 -36.382099 0.000000
            CHANNELS 3 Zrotation Xrotation Yrotation
            JOINT RightFoot
            {
                OFFSET -0.000000 -49.182560 0.000000
                CHANNELS 3 Zrotation Xrotation Yrotation
                JOINT RightToeBase
                {
                    OFFSET -0.000000 -6.553152 15.122660
                    CHANNELS 3 Zrotation Xrotation Yrotation
                    End Site
                    {
                        OFFSET -0.000000 0.000000 4.032709
                    }
                }
            }
        }
    }
}
MOTION
Frames:    5
Frame Time:    0.008333
50.697517    89.972908    -30.303345    2.052064    4.327727    -94.756454    -0.725330    -3.234773    -1.268604    2.804034    0.249565    -1.254234    -2.604275    25.176443    -16.167103    19.714596    -10.921785    -12.468430    7.385094    8.205112    -6.138352    -48.016193    43.569733    -26.058416    29.820276    -39.558727    -92.938980    32.919399    -2.854059    24.253912    -2.866991    8.070639    -2.761085    58.185261    31.252485    11.371840    -16.421072    -31.161186    100.251114    -29.258678    -5.820178    -26.306540    3.719333    -13.755618    3.788050    -2.348837    38.563118    3.749630    2.828196    -20.511688    -0.764611    0.000000    0.000000    0.000000    -20.331936    -9.904210    -0.126599    1.159918    24.479954    -0.470185    4.658721    4.398707    -4.412984    0.000000    0.000000    0.000000    
50.804806    90.095940    -30.598503    2.087797    4.326944    -94.498405    -0.686091    -3.299968    -1.286451    2.875443    0.182979    -1.271313    -2.595192    25.206244    -16.192787    19.608194    -10.805383    -12.540043    7.433946    8.157108    -6.182272    -47.950184    43.485165    -25.937088    29.790537    -39.562473    -93.039207    32.925983    -2.841945    24.223969    -2.883994    7.893120    -2.720681    58.020912    31.013487    11.154140    -16.562119    -31.146498    100.241669    -29.200876    -5.680152    -26.175774    3.765934    -13.612014    3.434088    -2.257955    38.085960    3.689086    2.866280    -20.420626    -0.614358    0.000000    0.000000    0.000000    -20.408190    -9.907241    0.082273    1.223079    24.342138    -0.619389    4.665192    4.887716    -4.390030    0.000000    0.000000    0.000000    
50.899525    90.232582    -30.889809    2.131122    4.321774    -94.252045    -0.646993    -3.379124    -1.303267    2.939094    0.106335    -1.286927    -2.586016    25.225353    -16.218073    19.492470    -10.650695    -12.619260    7.491116    8.106549    -6.233303    -47.881207    43.407833    -25.803127    29.747925    -39.561745    -93.145889    32.937450    -2.833813    24.197037    -2.906600    7.714779    -2.684430    57.858952    30.767178    10.923671    -16.662849    -31.122795    100.243118    -29.191551    -5.556637    -26.070509    3.814340    -13.445047    3.073881    -2.187504    37.565521    3.658993    2.906214    -20.283344    -0.479840    0.000000    0.000000    0.000000    -20.466791    -9.908185    0.262826    1.277221    24.195930    -0.745979    4.688538    5.367978    -4.377885    0.000000    0.000000    0.000000    
50.989574    90.388824    -31.197666    2.185247    4.311916    -93.999992    -0.604527    -3.476606    -1.319826    2.998908    0.015263    -1.301883    -2.576475    25.236172    -16.244287    19.361851    -10.455240    -12.709066    7.558729    8.049406    -6.295269    -47.803490    43.331718    -25.647991    29.690428    -39.557961    -93.267502    32.956894    -2.828673    24.171585    -2.936739    7.526194    -2.649446    57.686913    30.502022    10.668794    -16.734173    -31.095364    100.254051    -29.228678    -5.445544    -25.985611    3.865716    -13.244805    2.686665    -2.124997    36.968361    3.655953    2.951057    -20.099955    -0.353584    0.000000    0.000000    0.000000    -20.515638    -9.910028    0.424197    1.324565    24.035189    -0.855538    4.730074    5.872417    -4.371127    0.000000    0.000000    0.000000    
51.069130    90.550819    -31.500191    2.246706    4.297579    -93.760063    -0.561879    -3.584828    -1.334835    3.050654    -0.083203    -1.315034    -2.568018    25.237698    -16.269024    19.227657    -10.238739    -12.801014    7.630744    7.989356    -6.363479    -47.721008    43.261879    -25.484005    29.622665    -39.552052    -93.396736    32.984730    -2.825940    24.149397    -2.973538    7.343430    -2.618468    57.515739    30.241058    10.411688    -16.775040    -31.071629    100.271881    -29.302444    -5.357434    -25.929066    3.913774    -13.026823    2.303225    -2.068289    36.338917    3.680676    2.995652    -19.889702    -0.248190    0.000000    0.000000    0.000000    -20.553570    -9.915048    0.549888    1.359049    23.875217    -0.934651    4.784820    6.363154    -4.367447    0.000000    0.000000    0.000000    
